<svg width="655" height="23" viewBox="0 0 655 23" fill="none" xmlns="http://www.w3.org/2000/svg">
<line y1="13.5" x2="173" y2="13.5" stroke="black" stroke-opacity="0.8"/>
<line x1="482" y1="13.5" x2="655" y2="13.5" stroke="black" stroke-opacity="0.8"/>
<path d="M210.36 19V5H211.82V16.6L220.78 5H222.12V19H220.66V7.42L211.7 19H210.36ZM224.584 18.98L224.684 17.76C224.778 17.7733 224.864 17.7933 224.944 17.82C225.038 17.8333 225.118 17.84 225.184 17.84C225.611 17.84 225.951 17.68 226.204 17.36C226.471 17.04 226.671 16.6133 226.804 16.08C226.938 15.5467 227.031 14.9467 227.084 14.28C227.138 13.6 227.184 12.92 227.224 12.24L227.404 8.5H235.104V19H233.684V9.32L234.044 9.74H228.324L228.664 9.3L228.504 12.34C228.464 13.2467 228.391 14.1133 228.284 14.94C228.191 15.7667 228.038 16.4933 227.824 17.12C227.624 17.7467 227.344 18.24 226.984 18.6C226.624 18.9467 226.164 19.12 225.604 19.12C225.444 19.12 225.278 19.1067 225.104 19.08C224.944 19.0533 224.771 19.02 224.584 18.98ZM239.141 19V8.5H240.561V16.84L247.581 8.5H248.841V19H247.421V10.64L240.421 19H239.141ZM258.145 19V8.5H262.785C263.972 8.5 264.905 8.72667 265.585 9.18C266.278 9.63333 266.625 10.3 266.625 11.18C266.625 12.0333 266.298 12.6933 265.645 13.16C264.992 13.6133 264.132 13.84 263.065 13.84L263.345 13.42C264.598 13.42 265.518 13.6533 266.105 14.12C266.692 14.5867 266.985 15.26 266.985 16.14C266.985 17.0467 266.652 17.7533 265.985 18.26C265.332 18.7533 264.312 19 262.925 19H258.145ZM259.525 17.88H262.865C263.758 17.88 264.432 17.74 264.885 17.46C265.352 17.1667 265.585 16.7 265.585 16.06C265.585 15.42 265.378 14.9533 264.965 14.66C264.552 14.3667 263.898 14.22 263.005 14.22H259.525V17.88ZM259.525 13.16H262.685C263.498 13.16 264.118 13.0067 264.545 12.7C264.985 12.3933 265.205 11.9467 265.205 11.36C265.205 10.7733 264.985 10.3333 264.545 10.04C264.118 9.74667 263.498 9.6 262.685 9.6H259.525V13.16ZM274.633 19.1C273.62 19.1 272.706 18.8733 271.893 18.42C271.093 17.9533 270.46 17.32 269.993 16.52C269.526 15.7067 269.293 14.78 269.293 13.74C269.293 12.6867 269.526 11.76 269.993 10.96C270.46 10.16 271.093 9.53333 271.893 9.08C272.693 8.62667 273.606 8.4 274.633 8.4C275.673 8.4 276.593 8.62667 277.393 9.08C278.206 9.53333 278.84 10.16 279.293 10.96C279.76 11.76 279.993 12.6867 279.993 13.74C279.993 14.78 279.76 15.7067 279.293 16.52C278.84 17.32 278.206 17.9533 277.393 18.42C276.58 18.8733 275.66 19.1 274.633 19.1ZM274.633 17.84C275.393 17.84 276.066 17.6733 276.653 17.34C277.24 16.9933 277.7 16.5133 278.033 15.9C278.38 15.2733 278.553 14.5533 278.553 13.74C278.553 12.9133 278.38 12.1933 278.033 11.58C277.7 10.9667 277.24 10.4933 276.653 10.16C276.066 9.81333 275.4 9.64 274.653 9.64C273.906 9.64 273.24 9.81333 272.653 10.16C272.066 10.4933 271.6 10.9667 271.253 11.58C270.906 12.1933 270.733 12.9133 270.733 13.74C270.733 14.5533 270.906 15.2733 271.253 15.9C271.6 16.5133 272.066 16.9933 272.653 17.34C273.24 17.6733 273.9 17.84 274.633 17.84ZM283.028 19V8.5H284.448V16.84L291.468 8.5H292.728V19H291.308V10.64L284.308 19H283.028ZM287.788 6.98C286.908 6.98 286.194 6.76 285.648 6.32C285.114 5.86667 284.834 5.22 284.808 4.38H285.828C285.841 4.91333 286.028 5.33333 286.388 5.64C286.748 5.94667 287.214 6.1 287.788 6.1C288.361 6.1 288.828 5.94667 289.188 5.64C289.561 5.33333 289.754 4.91333 289.768 4.38H290.788C290.774 5.22 290.494 5.86667 289.948 6.32C289.401 6.76 288.681 6.98 287.788 6.98ZM303.997 18.32V9.74H298.937L298.817 12.08C298.791 12.7867 298.744 13.48 298.677 14.16C298.624 14.84 298.524 15.4667 298.377 16.04C298.244 16.6 298.051 17.06 297.797 17.42C297.544 17.7667 297.217 17.9667 296.817 18.02L295.397 17.76C295.811 17.7733 296.151 17.6267 296.417 17.32C296.684 17 296.891 16.5667 297.037 16.02C297.184 15.4733 297.291 14.8533 297.357 14.16C297.424 13.4533 297.477 12.7333 297.517 12L297.657 8.5H305.417V18.32H303.997ZM294.957 21.54V17.76H307.057V21.54H305.717V19H296.297V21.54H294.957ZM309.825 19V8.5H311.245V16.84L318.265 8.5H319.525V19H318.105V10.64L311.105 19H309.825ZM325.594 19V9.36L325.954 9.74H321.614V8.5H330.994V9.74H326.654L327.014 9.36V19H325.594ZM337.059 19.1C335.966 19.1 335.006 18.8733 334.179 18.42C333.352 17.9533 332.706 17.32 332.239 16.52C331.772 15.7067 331.539 14.78 331.539 13.74C331.539 12.7 331.759 11.78 332.199 10.98C332.652 10.18 333.266 9.55333 334.039 9.1C334.826 8.63333 335.706 8.4 336.679 8.4C337.666 8.4 338.539 8.62667 339.299 9.08C340.072 9.52 340.679 10.1467 341.119 10.96C341.559 11.76 341.779 12.6867 341.779 13.74C341.779 13.8067 341.772 13.88 341.759 13.96C341.759 14.0267 341.759 14.1 341.759 14.18H332.619V13.12H340.999L340.439 13.54C340.439 12.78 340.272 12.1067 339.939 11.52C339.619 10.92 339.179 10.4533 338.619 10.12C338.059 9.78667 337.412 9.62 336.679 9.62C335.959 9.62 335.312 9.78667 334.739 10.12C334.166 10.4533 333.719 10.92 333.399 11.52C333.079 12.12 332.919 12.8067 332.919 13.58V13.8C332.919 14.6 333.092 15.3067 333.439 15.92C333.799 16.52 334.292 16.9933 334.919 17.34C335.559 17.6733 336.286 17.84 337.099 17.84C337.739 17.84 338.332 17.7267 338.879 17.5C339.439 17.2733 339.919 16.9267 340.319 16.46L341.119 17.38C340.652 17.94 340.066 18.3667 339.359 18.66C338.666 18.9533 337.899 19.1 337.059 19.1ZM350.157 19V8.5H359.597V19H358.177V9.36L358.537 9.74H351.217L351.577 9.36V19H350.157ZM367.953 19.1C366.94 19.1 366.027 18.8733 365.213 18.42C364.413 17.9533 363.78 17.32 363.313 16.52C362.847 15.7067 362.613 14.78 362.613 13.74C362.613 12.6867 362.847 11.76 363.313 10.96C363.78 10.16 364.413 9.53333 365.213 9.08C366.013 8.62667 366.927 8.4 367.953 8.4C368.993 8.4 369.913 8.62667 370.713 9.08C371.527 9.53333 372.16 10.16 372.613 10.96C373.08 11.76 373.313 12.6867 373.313 13.74C373.313 14.78 373.08 15.7067 372.613 16.52C372.16 17.32 371.527 17.9533 370.713 18.42C369.9 18.8733 368.98 19.1 367.953 19.1ZM367.953 17.84C368.713 17.84 369.387 17.6733 369.973 17.34C370.56 16.9933 371.02 16.5133 371.353 15.9C371.7 15.2733 371.873 14.5533 371.873 13.74C371.873 12.9133 371.7 12.1933 371.353 11.58C371.02 10.9667 370.56 10.4933 369.973 10.16C369.387 9.81333 368.72 9.64 367.973 9.64C367.227 9.64 366.56 9.81333 365.973 10.16C365.387 10.4933 364.92 10.9667 364.573 11.58C364.227 12.1933 364.053 12.9133 364.053 13.74C364.053 14.5533 364.227 15.2733 364.573 15.9C364.92 16.5133 365.387 16.9933 365.973 17.34C366.56 17.6733 367.22 17.84 367.953 17.84ZM379.663 18.98L379.763 17.76C379.856 17.7733 379.943 17.7933 380.023 17.82C380.116 17.8333 380.196 17.84 380.263 17.84C380.689 17.84 381.029 17.68 381.283 17.36C381.549 17.04 381.749 16.6133 381.883 16.08C382.016 15.5467 382.109 14.9467 382.163 14.28C382.216 13.6 382.263 12.92 382.303 12.24L382.483 8.5H390.183V19H388.763V9.32L389.123 9.74H383.403L383.743 9.3L383.583 12.34C383.543 13.2467 383.469 14.1133 383.363 14.94C383.269 15.7667 383.116 16.4933 382.903 17.12C382.703 17.7467 382.423 18.24 382.062 18.6C381.703 18.9467 381.243 19.12 380.683 19.12C380.523 19.12 380.356 19.1067 380.183 19.08C380.023 19.0533 379.849 19.02 379.663 18.98ZM398.539 19.1C397.526 19.1 396.613 18.8733 395.799 18.42C394.999 17.9533 394.366 17.32 393.899 16.52C393.433 15.7067 393.199 14.78 393.199 13.74C393.199 12.6867 393.433 11.76 393.899 10.96C394.366 10.16 394.999 9.53333 395.799 9.08C396.599 8.62667 397.513 8.4 398.539 8.4C399.579 8.4 400.499 8.62667 401.299 9.08C402.113 9.53333 402.746 10.16 403.199 10.96C403.666 11.76 403.899 12.6867 403.899 13.74C403.899 14.78 403.666 15.7067 403.199 16.52C402.746 17.32 402.113 17.9533 401.299 18.42C400.486 18.8733 399.566 19.1 398.539 19.1ZM398.539 17.84C399.299 17.84 399.973 17.6733 400.559 17.34C401.146 16.9933 401.606 16.5133 401.939 15.9C402.286 15.2733 402.459 14.5533 402.459 13.74C402.459 12.9133 402.286 12.1933 401.939 11.58C401.606 10.9667 401.146 10.4933 400.559 10.16C399.973 9.81333 399.306 9.64 398.559 9.64C397.813 9.64 397.146 9.81333 396.559 10.16C395.973 10.4933 395.506 10.9667 395.159 11.58C394.813 12.1933 394.639 12.9133 394.639 13.74C394.639 14.5533 394.813 15.2733 395.159 15.9C395.506 16.5133 395.973 16.9933 396.559 17.34C397.146 17.6733 397.806 17.84 398.539 17.84ZM406.934 19V8.5H414.374V9.74H407.994L408.354 9.38V19H406.934ZM416.426 19V8.5H417.846V16.84L424.866 8.5H426.126V19H424.706V10.64L417.706 19H416.426ZM430.196 19V8.5H431.616V13.14H438.236V8.5H439.656V19H438.236V14.36H431.616V19H430.196ZM443.872 22.98C443.379 22.98 442.905 22.9 442.452 22.74C442.012 22.58 441.632 22.34 441.312 22.02L441.972 20.96C442.239 21.2133 442.525 21.4067 442.832 21.54C443.152 21.6867 443.505 21.76 443.892 21.76C444.359 21.76 444.759 21.6267 445.092 21.36C445.439 21.1067 445.765 20.6533 446.072 20L446.752 18.46L446.912 18.24L451.232 8.5H452.632L447.372 20.26C447.079 20.94 446.752 21.48 446.392 21.88C446.045 22.28 445.665 22.56 445.252 22.72C444.839 22.8933 444.379 22.98 443.872 22.98ZM446.672 19.3L441.832 8.5H443.312L447.592 18.14L446.672 19.3Z" fill="black" fill-opacity="0.8"/>
</svg>
